<?xml version="1.0" encoding="UTF-8"?>
<svg version="1.1" xmlns="http://www.w3.org/2000/svg" width="483" height="517">
<path d="M0 0 C1.44251383 -0.00514042 2.88502138 -0.01242263 4.32751465 -0.02168274 C8.2387563 -0.04018821 12.14931579 -0.02726482 16.06052899 -0.00759244 C20.15461339 0.00879957 24.24865478 -0.00001945 28.34275818 -0.00511169 C35.21673475 -0.00963154 42.09043909 0.00623153 48.96435547 0.03417969 C56.91194102 0.066244 64.85903598 0.06621068 72.80665642 0.04896492 C80.45321274 0.03310363 88.09958917 0.03982994 95.74613762 0.05690193 C99.00007858 0.06377507 102.25387546 0.06273738 105.50781441 0.05535698 C109.33867193 0.04769797 113.16897075 0.05980687 116.99973297 0.08720589 C118.4058027 0.09409449 119.81192457 0.09418253 121.21799278 0.08699036 C123.13655001 0.07830723 125.055173 0.09667584 126.97364807 0.11643982 C128.584419 0.1206502 128.584419 0.1206502 130.22773075 0.12494564 C133.67685569 0.75429512 134.83223824 1.93773181 137.00170898 4.63110352 C138.26408629 7.15585813 138.10027303 8.94310817 138.06420898 11.75610352 C138.05518555 12.66618164 138.04616211 13.57625977 138.03686523 14.51391602 C138.01946289 15.56192383 138.01946289 15.56192383 138.00170898 16.63110352 C138.84991211 16.34235352 139.69811523 16.05360352 140.57202148 15.75610352 C152.64246024 11.93600861 163.51797974 10.527132 175.37280273 16.14672852 C182.43795254 20.13596615 187.20987595 25.03162528 189.72045898 32.87719727 C192.48643058 44.25043573 190.44758232 55.36060939 185.00170898 65.63110352 C176.02475778 78.59107136 156.84964472 85.87753084 142.00170898 89.63110352 C140.12387894 89.94680346 138.24192946 90.23867406 136.35717773 90.51000977 C126.58789735 91.60230461 126.58789735 91.60230461 118.31225586 96.28442383 C115.48790542 100.33807788 113.76291867 104.83168241 111.97338867 109.41088867 C110.39580532 113.01554773 108.20527983 116.10089002 105.87670898 119.25610352 C105.45454102 119.83207275 105.03237305 120.40804199 104.59741211 121.00146484 C97.66324372 130.25836194 90.73352688 136.91116108 79.00170898 138.63110352 C62.31250684 140.71725378 39.46233668 142.64443481 24.62670898 133.10375977 C22.68920898 131.50610352 22.68920898 131.50610352 20.00170898 128.63110352 C20.00170898 127.97110352 20.00170898 127.31110352 20.00170898 126.63110352 C19.34170898 126.63110352 18.68170898 126.63110352 18.00170898 126.63110352 C14.00170898 121.33698587 14.00170898 121.33698587 14.00170898 117.63110352 C18.67526505 118.44389588 22.86524851 120.00593884 27.28295898 121.69360352 C32.59075184 123.52387691 37.56600731 123.76769206 43.14624023 123.72875977 C43.91602707 123.72734482 44.6858139 123.72592987 45.47892761 123.72447205 C47.92406186 123.71889958 50.36910267 123.70635223 52.81420898 123.69360352 C54.47761912 123.68858495 56.14103069 123.68402267 57.80444336 123.67993164 C61.87023427 123.66893917 65.93595581 123.65169362 70.00170898 123.63110352 C68.97110352 123.55762695 68.97110352 123.55762695 67.91967773 123.48266602 C66.5680957 123.37051758 66.5680957 123.37051758 65.18920898 123.25610352 C64.29588867 123.18649414 63.40256836 123.11688477 62.48217773 123.04516602 C60.00170898 122.63110352 60.00170898 122.63110352 57.00170898 120.63110352 C57.75170898 118.69360352 57.75170898 118.69360352 59.00170898 116.63110352 C63.40558426 115.056821 68.28591512 115.20918202 72.90795898 114.91235352 C76.18377859 114.69446191 76.18377859 114.69446191 80.00170898 113.63110352 C73.73170898 113.30110352 67.46170898 112.97110352 61.00170898 112.63110352 C60.67170898 111.31110352 60.34170898 109.99110352 60.00170898 108.63110352 C65.36898009 106.58048499 70.72122145 105.79674229 76.37670898 105.00610352 C77.76696289 104.80500977 77.76696289 104.80500977 79.18530273 104.59985352 C81.45677996 104.27201144 83.72885555 103.94923924 86.00170898 103.63110352 C86.00170898 102.97110352 86.00170898 102.31110352 86.00170898 101.63110352 C84.22666992 101.84766602 84.22666992 101.84766602 82.41577148 102.06860352 C74.23707388 103.03884022 66.2532819 103.89728329 58.00170898 103.63110352 C58.2265625 101.25732422 58.2265625 101.25732422 59.00170898 98.63110352 C60.91943359 97.42089844 60.91943359 97.42089844 63.40405273 96.61157227 C64.29415039 96.31186523 65.18424805 96.0121582 66.10131836 95.70336914 C67.03782227 95.41139648 67.97432617 95.11942383 68.93920898 94.81860352 C69.8718457 94.50729492 70.80448242 94.19598633 71.76538086 93.87524414 C78.58658192 91.63110352 78.58658192 91.63110352 81.00170898 91.63110352 C81.00170898 90.97110352 81.00170898 90.31110352 81.00170898 89.63110352 C80.41268799 89.80762451 79.82366699 89.98414551 79.21679688 90.16601562 C76.50156072 90.97481503 73.78297535 91.77175516 71.06420898 92.56860352 C70.13801758 92.84639648 69.21182617 93.12418945 68.25756836 93.41040039 C62.474815 95.09450049 57.00711468 96.14451167 51.00170898 96.63110352 C50.60049616 93.12049129 50.79468204 91.91159164 52.93920898 89.00610352 C53.61983398 88.22235352 54.30045898 87.43860352 55.00170898 86.63110352 C55.49670898 85.14610352 55.49670898 85.14610352 56.00170898 83.63110352 C51.61159184 85.18593667 48.56163007 86.84018227 45.12670898 90.00610352 C39.06581414 95.52877218 32.49365908 99.87680189 24.00170898 99.63110352 C14.02639763 98.91964 7.16352271 95.20013106 0.31420898 88.00610352 C-16.03976607 67.69552159 -19.07309749 33.46050283 -19.62719727 8.23266602 C-18.94900517 5.42722543 -18.05231261 3.68804753 -15.94674873 1.69484138 C-11.22304103 -0.884012 -5.24794346 -0.04728107 0 0 Z M84.00170898 33.63110352 C83.58039991 35.87708401 83.58039991 35.87708401 84.00170898 38.63110352 C85.64804841 40.64786931 87.31438621 42.64849926 89.00170898 44.63110352 C89.00170898 45.95110352 89.00170898 47.27110352 89.00170898 48.63110352 C88.16921631 48.38352295 87.33672363 48.13594238 86.47900391 47.88085938 C83.3891874 46.96640485 80.29723211 46.05970269 77.20361328 45.15820312 C75.86513809 44.76644242 74.52755967 44.3716042 73.19091797 43.97363281 C71.26955888 43.40214799 69.34465305 42.84263033 67.41967773 42.28344727 C66.26234131 41.9430542 65.10500488 41.60266113 63.91259766 41.25195312 C60.9568605 40.36429707 60.9568605 40.36429707 58.00170898 41.63110352 C58.91728315 44.0353724 58.91728315 44.0353724 62.35327148 44.84985352 C63.77538231 45.28475795 65.20001246 45.71148689 66.62670898 46.13110352 C67.32666992 46.34379883 68.02663086 46.55649414 68.74780273 46.77563477 C73.1523814 48.10763165 77.57464155 49.37618676 82.00170898 50.63110352 C82.00170898 51.95110352 82.00170898 53.27110352 82.00170898 54.63110352 C80.89053711 54.48672852 79.77936523 54.34235352 78.63452148 54.19360352 C70.70686423 53.19384726 63.00944841 52.37688957 55.00170898 52.63110352 C55.00170898 53.62110352 55.00170898 54.61110352 55.00170898 55.63110352 C56.30366211 55.83606445 57.60561523 56.04102539 58.94702148 56.25219727 C60.67358616 56.52431887 62.40014854 56.79645506 64.12670898 57.06860352 C64.98264648 57.20331055 65.83858398 57.33801758 66.72045898 57.47680664 C71.15095854 58.17546234 75.57899929 58.88431811 80.00170898 59.63110352 C80.00170898 60.62110352 80.00170898 61.61110352 80.00170898 62.63110352 C78.91631836 62.60790039 77.83092773 62.58469727 76.71264648 62.56079102 C75.26734091 62.54202081 73.82202784 62.52382196 72.37670898 62.50610352 C71.30743164 62.4809668 71.30743164 62.4809668 70.21655273 62.45532227 C65.74049259 62.41425749 62.22221621 62.94023785 58.00170898 64.63110352 C60.84032685 67.46972138 63.92845443 67.33814916 67.75170898 67.75610352 C68.45553711 67.8424707 69.15936523 67.92883789 69.88452148 68.01782227 C73.94555775 68.49337112 77.90570916 68.72126703 82.00170898 68.63110352 C82.00170898 69.95110352 82.00170898 71.27110352 82.00170898 72.63110352 C77.38170898 73.29110352 72.76170898 73.95110352 68.00170898 74.63110352 C68.00170898 75.29110352 68.00170898 75.95110352 68.00170898 76.63110352 C93.19262108 77.34252874 93.19262108 77.34252874 118.00170898 73.63110352 C119.22277344 73.33308838 119.22277344 73.33308838 120.46850586 73.02905273 C135.14479409 69.36546919 151.79668489 64.95411716 164.00170898 55.63110352 C164.00170898 54.97110352 164.00170898 54.31110352 164.00170898 53.63110352 C164.64108398 53.36297852 165.28045898 53.09485352 165.93920898 52.81860352 C168.33302585 51.74442599 168.33302585 51.74442599 169.00170898 48.63110352 C169.34718049 43.27629514 169.4653291 39.99269921 166.00170898 35.63110352 C162.47613573 33.28072134 161.15288731 33.26553488 157.00170898 33.63110352 C154.03204666 34.63357895 154.03204666 34.63357895 151.07983398 36.11547852 C149.97124023 36.63883789 148.86264648 37.16219727 147.72045898 37.70141602 C146.00342773 38.53286133 146.00342773 38.53286133 144.25170898 39.38110352 C118.64747666 51.59864817 118.64747666 51.59864817 109.00170898 49.63110352 C104.29970201 47.44883234 100.19531657 44.66238031 96.00170898 41.63110352 C94.40262695 40.48641602 94.40262695 40.48641602 92.77124023 39.31860352 C90.85206568 37.92825714 88.94316673 36.52352841 87.04858398 35.09985352 C85.28618162 33.53393737 85.28618162 33.53393737 84.00170898 33.63110352 Z " fill="#FAF9F9" transform="translate(176.998291015625,205.368896484375)"/>
<path d="M0 0 C0.70125 0.2475 1.4025 0.495 2.125 0.75 C1.57707105 5.3682583 -0.46464488 8.73149647 -2.9375 12.5625 C-3.50307617 13.4587207 -3.50307617 13.4587207 -4.08007812 14.37304688 C-5.00489566 15.83636577 -5.93902065 17.29379523 -6.875 18.75 C-6.215 18.75 -5.555 18.75 -4.875 18.75 C-4.545 17.76 -4.215 16.77 -3.875 15.75 C-1.125 15 -1.125 15 2.125 14.75 C5.49609499 17.18467972 6.82724692 19.85674077 8.125 23.75 C8.58390625 23.3890625 9.0428125 23.028125 9.515625 22.65625 C10.43601562 21.96015625 10.43601562 21.96015625 11.375 21.25 C11.97828125 20.7859375 12.5815625 20.321875 13.203125 19.84375 C15.125 18.75 15.125 18.75 19.125 18.75 C18.6270163 22.48487777 18.25008244 24.56237635 16.125 27.75 C15.465 27.75 14.805 27.75 14.125 27.75 C13.91875 28.3275 13.7125 28.905 13.5 29.5 C11.16023851 33.32870062 7.85209199 35.28663386 3.5625 36.4375 C-0.35891473 35.33145995 -1.85290767 32.1230221 -3.875 28.75 C-4.52855469 29.38228516 -4.52855469 29.38228516 -5.1953125 30.02734375 C-8.05820755 32.66095933 -10.30500176 34.54480063 -14 35.875 C-17.76108767 35.71147445 -19.22370551 34.32331524 -21.875 31.75 C-27.86513895 35.53823017 -32.6688783 39.03246643 -36.5234375 45.05078125 C-38.13190126 47.0729828 -39.47764333 47.82332944 -41.875 48.75 C-45 49 -45 49 -47.875 48.75 C-48.535 48.09 -49.195 47.43 -49.875 46.75 C-49.74316981 42.00411322 -47.16514915 38.92699587 -43.875 35.75 C-41.93037349 34.26642344 -39.97351858 33.0188717 -37.875 31.75 C-41.0065587 32.64767656 -41.0065587 32.64767656 -43.875 34.75 C-46.20699388 34.82905064 -48.54332622 34.83798769 -50.875 34.75 C-50.875 34.09 -50.875 33.43 -50.875 32.75 C-53.25227173 31.91003066 -54.4241127 31.56836726 -56.8046875 32.52734375 C-57.44664062 32.91019531 -58.08859375 33.29304688 -58.75 33.6875 C-62.3259635 35.59158446 -64.75833282 36.48185194 -68.875 35.75 C-71.75 33.75 -71.75 33.75 -73.875 31.75 C-76.8469385 32.87451727 -79.20940687 33.97293791 -81.875 35.75 C-84.25 36.3125 -84.25 36.3125 -86.875 35.75 C-88.84499201 33.59750192 -90.37735992 31.24819111 -91.875 28.75 C-92.52855469 29.38228516 -92.52855469 29.38228516 -93.1953125 30.02734375 C-96.05820755 32.66095933 -98.30500176 34.54480063 -102 35.875 C-105.76108767 35.71147445 -107.22370551 34.32331524 -109.875 31.75 C-110.82375 32.575 -111.7725 33.4 -112.75 34.25 C-115.625 36.75 -115.625 36.75 -117.875 36.75 C-117.875 37.41 -117.875 38.07 -117.875 38.75 C-119.49602968 40.46108689 -121.17003463 42.12253306 -122.875 43.75 C-123.638125 44.513125 -124.40125 45.27625 -125.1875 46.0625 C-125.744375 46.619375 -126.30125 47.17625 -126.875 47.75 C-131.51457597 46.32243816 -131.51457597 46.32243816 -132.9375 44.0625 C-132.83630688 40.31835452 -130.86204938 37.88110812 -128.875 34.75 C-129.47828125 34.86859375 -130.0815625 34.9871875 -130.703125 35.109375 C-133.14085675 35.50255754 -135.40420788 35.7967792 -137.875 35.75 C-140.4375 33.8125 -140.4375 33.8125 -141.875 31.75 C-142.57625 32.059375 -143.2775 32.36875 -144 32.6875 C-147.00501852 33.79805032 -149.68352311 34.46631317 -152.875 34.75 C-153.535 34.09 -154.195 33.43 -154.875 32.75 C-154.875 31.76 -154.875 30.77 -154.875 29.75 C-155.74382812 30.19472656 -156.61265625 30.63945312 -157.5078125 31.09765625 C-159.23644531 31.94650391 -159.23644531 31.94650391 -161 32.8125 C-162.13695312 33.38097656 -163.27390625 33.94945312 -164.4453125 34.53515625 C-168.20893087 35.86828303 -170.08658581 35.88652426 -173.875 34.75 C-174.535 34.09 -175.195 33.43 -175.875 32.75 C-178.12165257 33.04955368 -179.68757787 33.63620799 -181.625 34.8125 C-185.01359632 36.22441513 -188.29744874 36.34033152 -191.875 35.75 C-195.15481751 33.68228896 -196.72246007 31.97880989 -198.875 28.75 C-199.74125 29.6471875 -199.74125 29.6471875 -200.625 30.5625 C-207.87826991 35.44450859 -216.27584223 36.02577927 -224.8125 36.125 C-225.8948291 36.14578613 -225.8948291 36.14578613 -226.99902344 36.16699219 C-231.43314447 36.12764221 -234.4111164 35.58588943 -237.875 32.75 C-238.6875 29.5625 -238.6875 29.5625 -238.875 26.75 C-237.885 26.09 -236.895 25.43 -235.875 24.75 C-234.1942515 25.21121899 -232.51505451 25.68268011 -230.85888672 26.22558594 C-227.41252385 27.13658611 -223.97805321 26.95922176 -220.4375 26.875 C-219.70595703 26.86597656 -218.97441406 26.85695312 -218.22070312 26.84765625 C-216.43865702 26.82436153 -214.65678241 26.7885019 -212.875 26.75 C-213.42027344 26.56824219 -213.96554688 26.38648438 -214.52734375 26.19921875 C-216.11368 25.67044 -217.6982001 25.1361938 -219.28125 24.59765625 C-220.9767085 24.04356815 -222.68558272 23.52859083 -224.40625 23.05859375 C-230.43617625 21.34554652 -230.43617625 21.34554652 -232.625 18.375 C-232.875 15.75 -232.875 15.75 -232.0625 13.1875 C-225.88039759 6.2988716 -215.5469948 5.31216073 -206.875 3.75 C-205.96492188 3.56953125 -205.05484375 3.3890625 -204.1171875 3.203125 C-201.75 2.8125 -201.75 2.8125 -197.875 2.75 C-195.625 4.75 -195.625 4.75 -193.875 6.75 C-191.27610217 6.83024658 -191.27610217 6.83024658 -188.875 5.75 C-188.42125 5.234375 -187.9675 4.71875 -187.5 4.1875 C-184.89001838 1.8786701 -182.20573979 2.56146756 -178.875 2.75 C-178.875 4.07 -178.875 5.39 -178.875 6.75 C-178.24851563 6.72679687 -177.62203125 6.70359375 -176.9765625 6.6796875 C-176.15929687 6.66164062 -175.34203125 6.64359375 -174.5 6.625 C-173.68789062 6.60179687 -172.87578125 6.57859375 -172.0390625 6.5546875 C-169.875 6.75 -169.875 6.75 -167.875 8.75 C-168.205 10.4 -168.535 12.05 -168.875 13.75 C-173.165 14.41 -177.455 15.07 -181.875 15.75 C-182.37 17.02875 -182.865 18.3075 -183.375 19.625 C-183.6534375 20.34429687 -183.931875 21.06359375 -184.21875 21.8046875 C-184.98155018 23.72367461 -184.98155018 23.72367461 -184.875 25.75 C-183.823125 25.3375 -182.77125 24.925 -181.6875 24.5 C-181.09582031 24.26796875 -180.50414062 24.0359375 -179.89453125 23.796875 C-177.72174741 22.75807225 -177.72174741 22.75807225 -175.53515625 20.83984375 C-172.64666068 18.57061449 -169.83133787 17.10156227 -166.5 15.5625 C-164.87964844 14.79873047 -164.87964844 14.79873047 -163.2265625 14.01953125 C-159.71911868 12.69095405 -156.60790248 12.05426334 -152.875 11.75 C-151.885 12.245 -151.885 12.245 -150.875 12.75 C-151.205 14.4 -151.535 16.05 -151.875 17.75 C-150.699375 18.430625 -150.699375 18.430625 -149.5 19.125 C-146.875 20.75 -146.875 20.75 -144.875 22.75 C-143.82699219 21.79287109 -143.82699219 21.79287109 -142.7578125 20.81640625 C-141.39269531 19.57697266 -141.39269531 19.57697266 -140 18.3125 C-139.09507812 17.48878906 -138.19015625 16.66507813 -137.2578125 15.81640625 C-133.6369469 12.67634411 -131.62203336 12.54799858 -126.875 12.75 C-125.875 13.75 -125.875 13.75 -125.5625 16 C-125.96854674 19.57321129 -127.48867451 21.1399565 -129.875 23.75 C-124.92984333 21.12288552 -120.99724511 17.48354706 -116.875 13.75 C-115.555 14.41 -114.235 15.07 -112.875 15.75 C-112.875 18.39 -112.875 21.03 -112.875 23.75 C-108.35551663 20.66352355 -106.07997233 17.62514757 -103.4375 12.8125 C-100.65890071 7.8489669 -98.00958801 3.49313606 -92.875 0.75 C-89.4375 0.375 -89.4375 0.375 -86.875 0.75 C-86.23046875 2.515625 -86.23046875 2.515625 -85.875 4.75 C-86.80078125 6.671875 -86.80078125 6.671875 -88.1875 8.5 C-88.63738281 9.11359375 -89.08726562 9.7271875 -89.55078125 10.359375 C-89.98777344 10.81828125 -90.42476562 11.2771875 -90.875 11.75 C-91.535 11.75 -92.195 11.75 -92.875 11.75 C-93.4284764 13.82553648 -93.875 15.59365964 -93.875 17.75 C-93.33875 17.234375 -92.8025 16.71875 -92.25 16.1875 C-89.875 14.75 -89.875 14.75 -86.8125 14.5625 C-83.875 15.75 -83.875 15.75 -82.82421875 17.609375 C-82.06445434 19.64021446 -81.41981592 21.65198081 -80.875 23.75 C-76.81487037 20.77608687 -72.884462 17.795097 -69.1875 14.375 C-66.86853289 12.34258718 -66.14243888 11.79069722 -63 11.3125 C-60.875 11.75 -60.875 11.75 -59.875 12.75 C-59.39937223 19.17097489 -59.39937223 19.17097489 -61.3125 21.5 C-61.828125 21.9125 -62.34375 22.325 -62.875 22.75 C-63.205 23.74 -63.535 24.73 -63.875 25.75 C-58.850295 24.10397595 -55.59677542 22.66000243 -51.6328125 19.0859375 C-46.08521791 14.86976561 -38.86203693 11.89556327 -31.875 11.75 C-30.885 12.41 -29.895 13.07 -28.875 13.75 C-29.205 15.07 -29.535 16.39 -29.875 17.75 C-28.555 18.08 -27.235 18.41 -25.875 18.75 C-25.545 20.4 -25.215 22.05 -24.875 23.75 C-20.35712042 20.33649099 -18.35133243 17.90077145 -15.875 12.75 C-6.80977328 -0.5921542 -6.80977328 -0.5921542 0 0 Z M-213.75 13.25 C-214.12125 13.745 -214.4925 14.24 -214.875 14.75 C-211.65121244 16.8991917 -208.89085352 17.774994 -205.1875 18.875 C-203.41826172 19.40480469 -203.41826172 19.40480469 -201.61328125 19.9453125 C-200.70964844 20.21085937 -199.80601562 20.47640625 -198.875 20.75 C-198.545 23.06 -198.215 25.37 -197.875 27.75 C-197.18879969 26.42661368 -196.52713539 25.09050052 -195.875 23.75 C-195.483125 22.945625 -195.09125 22.14125 -194.6875 21.3125 C-193.74377145 18.33612534 -194.17126866 16.73961045 -194.875 13.75 C-204.69518823 11.00252935 -204.69518823 11.00252935 -213.75 13.25 Z M-37.875 19.75 C-40.49887135 21.14092892 -40.49887135 21.14092892 -42.875 22.75 C-41.885 23.245 -41.885 23.245 -40.875 23.75 C-38.25112865 22.35907108 -38.25112865 22.35907108 -35.875 20.75 C-36.535 20.42 -37.195 20.09 -37.875 19.75 Z M-158.875 19.75 C-161.49887135 21.14092892 -161.49887135 21.14092892 -163.875 22.75 C-160.76948334 22.75 -159.52238916 22.2106285 -156.875 20.75 C-157.535 20.42 -158.195 20.09 -158.875 19.75 Z " fill="#EDECEB" transform="translate(349.875,149.25)"/>
<path d="M0 0 C0.74894531 0.08636719 1.49789062 0.17273438 2.26953125 0.26171875 C3.32901642 4.67624029 3.61428415 6.60787704 1.45703125 10.69921875 C0.73515625 11.54484375 0.01328125 12.39046875 -0.73046875 13.26171875 C-1.39046875 13.26171875 -2.05046875 13.26171875 -2.73046875 13.26171875 C-2.73046875 13.92171875 -2.73046875 14.58171875 -2.73046875 15.26171875 C-3.39046875 15.26171875 -4.05046875 15.26171875 -4.73046875 15.26171875 C-4.73046875 15.92171875 -4.73046875 16.58171875 -4.73046875 17.26171875 C-5.39046875 17.26171875 -6.05046875 17.26171875 -6.73046875 17.26171875 C-6.73046875 17.92171875 -6.73046875 18.58171875 -6.73046875 19.26171875 C-3.77246347 18.55403517 -3.77246347 18.55403517 -0.73046875 17.26171875 C-0.01206669 15.95553319 0.64395476 14.61481752 1.26953125 13.26171875 C2.56965307 11.32237037 3.9058127 9.40688645 5.26953125 7.51171875 C5.97078125 6.526875 6.67203125 5.54203125 7.39453125 4.52734375 C8.01328125 3.7796875 8.63203125 3.03203125 9.26953125 2.26171875 C9.92953125 2.26171875 10.58953125 2.26171875 11.26953125 2.26171875 C11.26953125 1.60171875 11.26953125 0.94171875 11.26953125 0.26171875 C13.26907871 0.21917519 15.26994761 0.22091092 17.26953125 0.26171875 C17.76453125 0.75671875 17.76453125 0.75671875 18.26953125 1.26171875 C17.89009637 5.35961544 17.57647168 7.8013081 15.26953125 11.26171875 C14.60953125 11.26171875 13.94953125 11.26171875 13.26953125 11.26171875 C13.26953125 11.92171875 13.26953125 12.58171875 13.26953125 13.26171875 C12.60953125 13.26171875 11.94953125 13.26171875 11.26953125 13.26171875 C10.80546875 14.18984375 10.80546875 14.18984375 10.33203125 15.13671875 C9.64453125 16.51171875 8.95703125 17.88671875 8.26953125 19.26171875 C9.47862259 18.51294137 10.68675738 17.76261936 11.89453125 17.01171875 C12.631875 16.55796875 13.36921875 16.10421875 14.12890625 15.63671875 C16.44755055 14.1942115 16.44755055 14.1942115 19.14453125 12.01171875 C23.37534938 9.6424606 27.4505644 9.21838272 32.26953125 9.26171875 C33.25953125 9.75671875 33.25953125 9.75671875 34.26953125 10.26171875 C34.89453125 12.82421875 34.89453125 12.82421875 35.26953125 15.26171875 C35.59953125 14.93171875 35.92953125 14.60171875 36.26953125 14.26171875 C37.9357024 14.22108043 39.6034122 14.21899775 41.26953125 14.26171875 C41.18816601 17.02813693 40.70235865 18.77269552 38.85546875 20.859375 C32.45576324 26.59655593 27.00413717 27.48664861 18.5625 27.4296875 C16.26953125 27.26171875 16.26953125 27.26171875 15.26953125 26.26171875 C13.2454437 26.35174273 11.22408838 26.50812913 9.20703125 26.69921875 C8.10230469 26.80105469 6.99757813 26.90289062 5.859375 27.0078125 C4.57740234 27.13349609 4.57740234 27.13349609 3.26953125 27.26171875 C3.03169922 28.20144531 3.03169922 28.20144531 2.7890625 29.16015625 C0.87377256 35.8689619 0.87377256 35.8689619 -2.23046875 37.88671875 C-4.73046875 38.26171875 -4.73046875 38.26171875 -7.73046875 37.26171875 C-7.27224407 33.79230329 -6.83915192 30.58776826 -5.73046875 27.26171875 C-7.71046875 26.93171875 -9.69046875 26.60171875 -11.73046875 26.26171875 C-11.82328125 28.11796875 -11.82328125 28.11796875 -11.91796875 30.01171875 C-12.34035959 33.40894793 -12.63102628 34.15152574 -15.04296875 36.82421875 C-17.73046875 38.26171875 -17.73046875 38.26171875 -20.04296875 38.01171875 C-20.59984375 37.76421875 -21.15671875 37.51671875 -21.73046875 37.26171875 C-21.19194907 31.9842259 -19.95703039 28.00526311 -17.73046875 23.26171875 C-18.35953125 23.55046875 -18.98859375 23.83921875 -19.63671875 24.13671875 C-27.32153444 27.46989182 -32.4956559 27.90868132 -40.73046875 26.26171875 C-41.72046875 26.59171875 -42.71046875 26.92171875 -43.73046875 27.26171875 C-53.28101124 28.15115859 -53.28101124 28.15115859 -57.48046875 25.57421875 C-58.73046875 23.26171875 -58.73046875 23.26171875 -58.79296875 20.88671875 C-56.996678 16.44882395 -54.8567983 13.32873557 -50.57421875 11.1796875 C-46.3793059 9.64854431 -43.09465286 8.71313729 -38.73046875 10.26171875 C-38.60546875 12.63671875 -38.60546875 12.63671875 -38.73046875 15.26171875 C-40.73046875 17.26171875 -40.73046875 17.26171875 -44.35546875 17.38671875 C-45.46921875 17.34546875 -46.58296875 17.30421875 -47.73046875 17.26171875 C-46.74046875 18.25171875 -45.75046875 19.24171875 -44.73046875 20.26171875 C-40.08425446 18.11731215 -35.98386268 15.48428241 -31.78125 12.56640625 C-27.64815613 9.93697129 -23.49115397 9.68526835 -18.73046875 10.26171875 C-16.55570474 11.80509966 -15.91214238 12.89837148 -14.73046875 15.26171875 C-13.74046875 14.93171875 -12.75046875 14.60171875 -11.73046875 14.26171875 C-11.01650208 12.61475979 -10.35680806 10.94395574 -9.73046875 9.26171875 C-8.1796875 6.8046875 -8.1796875 6.8046875 -6.41796875 4.44921875 C-5.55751953 3.26392578 -5.55751953 3.26392578 -4.6796875 2.0546875 C-2.73046875 0.26171875 -2.73046875 0.26171875 0 0 Z M-26.73046875 16.26171875 C-27.72046875 16.92171875 -28.71046875 17.58171875 -29.73046875 18.26171875 C-29.73046875 18.92171875 -29.73046875 19.58171875 -29.73046875 20.26171875 C-28.41046875 19.93171875 -27.09046875 19.60171875 -25.73046875 19.26171875 C-26.06046875 18.27171875 -26.39046875 17.28171875 -26.73046875 16.26171875 Z " fill="#ECEAEA" transform="translate(247.73046875,353.73828125)"/>
<path d="M0 0 C0.495 2.475 0.495 2.475 1 5 C-3.79974513 7.84429341 -7.7297188 7.13952026 -13 6 C-13.66 6 -14.32 6 -15 6 C-15.66 7.32 -16.32 8.64 -17 10 C-15.92878906 10.34933594 -14.85757813 10.69867188 -13.75390625 11.05859375 C-12.35671896 11.51807145 -10.95958635 11.97771546 -9.5625 12.4375 C-8.85544922 12.66759766 -8.14839844 12.89769531 -7.41992188 13.13476562 C-2.11328125 14.88671875 -2.11328125 14.88671875 -1 16 C-0.5625 19.25 -0.5625 19.25 -1 23 C-5.64657206 28.67914363 -11.93473186 30.00282321 -19 31 C-21.98072878 31.23575228 -24.94807856 31.33739519 -27.9375 31.375 C-29.01994995 31.39590698 -29.01994995 31.39590698 -30.12426758 31.41723633 C-34.55829184 31.3773648 -37.53614024 30.83586992 -41 28 C-41.8125 24.8125 -41.8125 24.8125 -42 22 C-41.01 21.34 -40.02 20.68 -39 20 C-37.3192515 20.46121899 -35.64005451 20.93268011 -33.98388672 21.47558594 C-30.53752385 22.38658611 -27.10305321 22.20922176 -23.5625 22.125 C-22.83095703 22.11597656 -22.09941406 22.10695312 -21.34570312 22.09765625 C-19.56365702 22.07436153 -17.78178241 22.0385019 -16 22 C-16.54527344 21.81824219 -17.09054688 21.63648438 -17.65234375 21.44921875 C-19.23868 20.92044 -20.8232001 20.3861938 -22.40625 19.84765625 C-24.1017085 19.29356815 -25.81058272 18.77859083 -27.53125 18.30859375 C-33.56117625 16.59554652 -33.56117625 16.59554652 -35.75 13.625 C-36 11 -36 11 -35.1875 8.4375 C-27.2343811 -0.42454677 -11.06459338 -2.11603975 0 0 Z " fill="#EFEDED" transform="translate(153,154)"/>
<path d="M0 0 C1.02480469 0.23976563 1.02480469 0.23976563 2.0703125 0.484375 C3.875 1.25 3.875 1.25 5.875 4.25 C6.41163089 7.70673923 6.49618814 11.04644797 4.875 14.1875 C1.66869569 15.89084917 -1.54413759 16.37837054 -5.125 16.25 C-10.68679775 14.12640449 -10.68679775 14.12640449 -12.125 11.25 C-12.70079318 5.03143361 -12.70079318 5.03143361 -10.375 1.875 C-6.8391587 -0.67866316 -4.20186262 -1.05445982 0 0 Z M0.875 5.25 C0.875 6.9 0.875 8.55 0.875 10.25 C1.535 9.92 2.195 9.59 2.875 9.25 C2.215 7.93 1.555 6.61 0.875 5.25 Z M-8.125 7.25 C-7.125 9.25 -7.125 9.25 -7.125 9.25 Z " fill="#978D8A" transform="translate(365.125,125.75)"/>
<path d="M0 0 C0.74894531 0.08636719 1.49789062 0.17273438 2.26953125 0.26171875 C3.32901642 4.67624029 3.61428415 6.60787704 1.45703125 10.69921875 C0.73515625 11.54484375 0.01328125 12.39046875 -0.73046875 13.26171875 C-1.39046875 13.26171875 -2.05046875 13.26171875 -2.73046875 13.26171875 C-2.73046875 13.92171875 -2.73046875 14.58171875 -2.73046875 15.26171875 C-3.39046875 15.26171875 -4.05046875 15.26171875 -4.73046875 15.26171875 C-4.73046875 15.92171875 -4.73046875 16.58171875 -4.73046875 17.26171875 C-5.72046875 16.93171875 -6.71046875 16.60171875 -7.73046875 16.26171875 C-8.06046875 15.27171875 -8.39046875 14.28171875 -8.73046875 13.26171875 C-10.05046875 14.58171875 -11.37046875 15.90171875 -12.73046875 17.26171875 C-13.72046875 16.93171875 -14.71046875 16.60171875 -15.73046875 16.26171875 C-15.11171875 16.03484375 -14.49296875 15.80796875 -13.85546875 15.57421875 C-11.07081841 13.85428766 -10.92111202 12.27512862 -9.73046875 9.26171875 C-8.1796875 6.8046875 -8.1796875 6.8046875 -6.41796875 4.44921875 C-5.84433594 3.65902344 -5.27070313 2.86882812 -4.6796875 2.0546875 C-2.73046875 0.26171875 -2.73046875 0.26171875 0 0 Z " fill="#E4E3E4" transform="translate(247.73046875,353.73828125)"/>
<path d="M0 0 C0.33 0.33 0.66 0.66 1 1 C0.4 7.6 0.4 7.6 -2 10 C-5.5 10.25 -5.5 10.25 -9 10 C-9.66 9.34 -10.32 8.68 -11 8 C-10.875 5 -10.875 5 -10 2 C-6.95901117 -0.47784275 -3.79689511 -0.25312634 0 0 Z " fill="#EFEDEE" transform="translate(298,150)"/>
<path d="M0 0 C1.2065625 0.0309375 1.2065625 0.0309375 2.4375 0.0625 C2.35587143 2.83787132 1.85135605 4.58462203 0.0234375 6.6953125 C-3.6630665 10.05701439 -6.41605057 11.81145369 -11.5625 12.0625 C-10.9025 11.7325 -10.2425 11.4025 -9.5625 11.0625 C-9.5625 10.0725 -9.5625 9.0825 -9.5625 8.0625 C-11.2125 8.0625 -12.8625 8.0625 -14.5625 8.0625 C-13.9025 7.0725 -13.2425 6.0825 -12.5625 5.0625 C-11.9025 5.0625 -11.2425 5.0625 -10.5625 5.0625 C-10.5625 4.4025 -10.5625 3.7425 -10.5625 3.0625 C-8.2525 3.3925 -5.9425 3.7225 -3.5625 4.0625 C-3.5625 3.0725 -3.5625 2.0825 -3.5625 1.0625 C-2.5625 0.0625 -2.5625 0.0625 0 0 Z " fill="#DBD7D8" transform="translate(286.5625,367.9375)"/>
<path d="M0 0 C-3.08809695 1.76462683 -4.23312136 2 -8 2 C-8 4.64 -8 7.28 -8 10 C-5.71294169 11.14352916 -4.40735238 11.10334439 -1.875 11.0625 C-0.59625 11.041875 0.6825 11.02125 2 11 C2 11.66 2 12.32 2 13 C1.34 13 0.68 13 0 13 C0 13.66 0 14.32 0 15 C-7.2 14.52 -7.2 14.52 -10.5 12.375 C-12.61242231 9.03033134 -12.55437355 6.88061483 -12 3 C-10.18103676 0.53140703 -8.79507112 -0.65215638 -6 -1.875 C-3.47607754 -2.03274515 -2.13359119 -1.29539465 0 0 Z " fill="#CFC8C5" transform="translate(365,127)"/>
<path d="M0 0 C3.3 0.33 6.6 0.66 10 1 C10.33 2.65 10.66 4.3 11 6 C6.6557539 8.57436806 3.58189937 8.39547484 -1.25 7.1875 C-2.1575 6.795625 -3.065 6.40375 -4 6 C-4.33 5.01 -4.66 4.02 -5 3 C-3.35 2.67 -1.7 2.34 0 2 C0 1.34 0 0.68 0 0 Z " fill="#FBFBF9" transform="translate(143,153)"/>
<path d="M0 0 C2.31 0 4.62 0 7 0 C7 1.32 7 2.64 7 4 C7.62648437 3.97679687 8.25296875 3.95359375 8.8984375 3.9296875 C9.71570313 3.91164062 10.53296875 3.89359375 11.375 3.875 C12.18710938 3.85179687 12.99921875 3.82859375 13.8359375 3.8046875 C16 4 16 4 18 6 C17.625 8.625 17.625 8.625 17 11 C16.08476562 11.12117187 15.16953125 11.24234375 14.2265625 11.3671875 C12.44378906 11.61855469 12.44378906 11.61855469 10.625 11.875 C9.44164062 12.03742188 8.25828125 12.19984375 7.0390625 12.3671875 C3.90433341 12.7302585 3.90433341 12.7302585 2 15 C2 13.35 2 11.7 2 10 C4.72842061 8.63578969 6.60953318 9.12192789 9.625 9.4375 C10.62789062 9.53933594 11.63078125 9.64117187 12.6640625 9.74609375 C13.43492187 9.82988281 14.20578125 9.91367188 15 10 C14.34 9.01 13.68 8.02 13 7 C9.43230448 6.26393501 9.43230448 6.26393501 6 6 C6 4.35 6 2.7 6 1 C4.02 1 2.04 1 0 1 C0 0.67 0 0.34 0 0 Z " fill="#D5D3D3" transform="translate(164,152)"/>
<path d="M0 0 C3.96 0.33 7.92 0.66 12 1 C11.67 2.98 11.34 4.96 11 7 C9.5629191 7.05422947 8.12524538 7.09289723 6.6875 7.125 C5.88699219 7.14820313 5.08648437 7.17140625 4.26171875 7.1953125 C2 7 2 7 -1 5 C-1.33 4.01 -1.66 3.02 -2 2 C-1.34 2 -0.68 2 0 2 C0 1.34 0 0.68 0 0 Z " fill="#FDFCFB" transform="translate(116,177)"/>
<path d="M0 0 C0.33 0.99 0.66 1.98 1 3 C0.67 3.66 0.34 4.32 0 5 C0.99 5.33 1.98 5.66 3 6 C0.69 6.33 -1.62 6.66 -4 7 C-4 7.66 -4 8.32 -4 9 C-4.99 8.67 -5.98 8.34 -7 8 C-7.33 7.01 -7.66 6.02 -8 5 C-7.01 4.67 -6.02 4.34 -5 4 C-5 3.34 -5 2.68 -5 2 C-6.98 2 -8.96 2 -11 2 C-11 2.66 -11 3.32 -11 4 C-12.98 4.99 -12.98 4.99 -15 6 C-15.99 5.34 -16.98 4.68 -18 4 C-16.58521865 3.35004703 -15.16808513 2.70521278 -13.75 2.0625 C-12.96109375 1.70285156 -12.1721875 1.34320313 -11.359375 0.97265625 C-7.09175478 -0.78667725 -4.52073412 -1.13018353 0 0 Z " fill="#D9D7D6" transform="translate(320,162)"/>
<path d="M0 0 C0.125 2.375 0.125 2.375 0 5 C-2 7 -2 7 -5.625 7.125 C-6.73875 7.08375 -7.8525 7.0425 -9 7 C-8.01 8.65 -7.02 10.3 -6 12 C-7.98 11.34 -9.96 10.68 -12 10 C-11.01 8.02 -10.02 6.04 -9 4 C-8.34 4 -7.68 4 -7 4 C-7 3.34 -7 2.68 -7 2 C-8.32 1.67 -9.64 1.34 -11 1 C-6.87831311 -0.62950412 -4.29299643 -1.26264601 0 0 Z " fill="#D5D4D5" transform="translate(209,364)"/>
<path d="M0 0 C0.98484375 0.00902344 1.9696875 0.01804687 2.984375 0.02734375 C4.10585937 0.04474609 4.10585937 0.04474609 5.25 0.0625 C2.58333333 1.39583333 -0.08333333 2.72916667 -2.75 4.0625 C-2.42 5.0525 -2.09 6.0425 -1.75 7.0625 C-8.375 7.3125 -8.375 7.3125 -11.75 5.0625 C-11 3.125 -11 3.125 -9.75 1.0625 C-6.52306305 -0.11093162 -3.40399295 -0.04052373 0 0 Z " fill="#D6D3D4" transform="translate(245.75,320.9375)"/>
<path d="M0 0 C0 0.66 0 1.32 0 2 C-1.98 2 -3.96 2 -6 2 C-6.33 2.99 -6.66 3.98 -7 5 C-0.07 5.495 -0.07 5.495 7 6 C7.33 7.32 7.66 8.64 8 10 C7.34 9.67 6.68 9.34 6 9 C6 8.67 6 8.34 6 8 C-0.27 7.67 -6.54 7.34 -13 7 C-13.33 5.68 -13.66 4.36 -14 3 C-9.41092739 1.3610455 -4.91176014 0 0 0 Z " fill="#B7B5B5" transform="translate(251,311)"/>
<path d="M0 0 C2.87603344 0.28338275 5.75053851 0.57641253 8.625 0.875 C9.43324219 0.95363281 10.24148437 1.03226562 11.07421875 1.11328125 C15.63499049 1.59531404 19.68545585 2.3384118 24 4 C24 4.99 24 5.98 24 7 C20.7 7.33 17.4 7.66 14 8 C14.33 6.68 14.66 5.36 15 4 C13.02 4 11.04 4 9 4 C9 3.34 9 2.68 9 2 C6.69 2.33 4.38 2.66 2 3 C2 2.34 2 1.68 2 1 C1.34 0.67 0.68 0.34 0 0 Z " fill="#C9C7C7" transform="translate(233,261)"/>
<path d="M0 0 C1.9453125 0.2421875 1.9453125 0.2421875 4.125 0.875 C4.84945312 1.07867187 5.57390625 1.28234375 6.3203125 1.4921875 C6.87460938 1.65976563 7.42890625 1.82734375 8 2 C7.38125 2.28875 6.7625 2.5775 6.125 2.875 C3.86674235 3.93720042 3.86674235 3.93720042 2 6 C2.99264379 7.62814885 2.99264379 7.62814885 5 9 C7.79251583 9.37674518 10.38779201 9.60191941 13.1875 9.6875 C13.93708984 9.72166016 14.68667969 9.75582031 15.45898438 9.79101562 C17.30546838 9.87334294 19.15270994 9.93835281 21 10 C21 10.33 21 10.66 21 11 C18.27022936 11.08126109 15.5428983 11.14061663 12.8125 11.1875 C12.04357422 11.21263672 11.27464844 11.23777344 10.48242188 11.26367188 C5.84724298 11.32335229 2.71387014 11.10693416 -1 8 C-1.9375 4.9375 -1.9375 4.9375 -2 2 C-1.34 1.34 -0.68 0.68 0 0 Z " fill="#C5C4C4" transform="translate(113,174)"/>
<path d="M0 0 C-1.65 0.66 -3.3 1.32 -5 2 C-4.67 2.66 -4.34 3.32 -4 4 C-2.10466658 4.46523063 -2.10466658 4.46523063 0.0625 4.625 C1.361875 4.74875 2.66125 4.8725 4 5 C4 5.33 4 5.66 4 6 C-1.36095333 7.12862175 -6.55306686 7.09688221 -12 7 C-11.67 5.35 -11.34 3.7 -11 2 C-9.54494642 1.47007308 -8.08581873 0.9513211 -6.625 0.4375 C-5.81289062 0.14746094 -5.00078125 -0.14257812 -4.1640625 -0.44140625 C-2 -1 -2 -1 0 0 Z " fill="#D2D1D2" transform="translate(247,302)"/>
<path d="M0 0 C5.12583611 -0.10251672 9.94997778 -0.03590199 15 1 C15 2.32 15 3.64 15 5 C13.58622218 5.36552803 12.16879424 5.71695495 10.75 6.0625 C9.96109375 6.25972656 9.1721875 6.45695312 8.359375 6.66015625 C5.89605178 7.01497267 4.34395868 6.76877544 2 6 C4.31 5.34 6.62 4.68 9 4 C8.01 3.67 7.02 3.34 6 3 C6 2.34 6 1.68 6 1 C4.02 1 2.04 1 0 1 C0 0.67 0 0.34 0 0 Z " fill="#D1D0D0" transform="translate(244,273)"/>
<path d="M0 0 C0.70125 0.2475 1.4025 0.495 2.125 0.75 C1.795 2.07 1.465 3.39 1.125 4.75 C1.125 3.76 1.125 2.77 1.125 1.75 C-1.21038907 1.71127313 -1.21038907 1.71127313 -3.875 2.75 C-5.3107458 4.42217101 -6.47277406 6.17936224 -7.671875 8.02734375 C-9.11610596 10.09521989 -10.74834714 11.41099635 -12.875 12.75 C-13.535 12.42 -14.195 12.09 -14.875 11.75 C-6.44870518 -0.56075697 -6.44870518 -0.56075697 0 0 Z " fill="#D0CDCD" transform="translate(349.875,149.25)"/>
<path d="M0 0 C2.97 0.495 2.97 0.495 6 1 C6 2.98 6 4.96 6 7 C3 8 3 8 0 7 C0 5.68 0 4.36 0 3 C-0.66 2.67 -1.32 2.34 -2 2 C-1.34 2 -0.68 2 0 2 C0 1.34 0 0.68 0 0 Z " fill="#DDD5D1" transform="translate(359,130)"/>
<path d="M0 0 C0.33 0.99 0.66 1.98 1 3 C0.67 3.66 0.34 4.32 0 5 C-0.66 5 -1.32 5 -2 5 C-2.04125 5.886875 -2.0825 6.77375 -2.125 7.6875 C-3.33943982 12.28502218 -5.0683848 13.40513397 -9 16 C-9.99 15.67 -10.98 15.34 -12 15 C-11.38125 14.773125 -10.7625 14.54625 -10.125 14.3125 C-7.31251731 12.57537834 -7.20297899 11.07427963 -6 8 C-4.10329676 5.25181977 -2.0680925 2.62088452 0 0 Z " fill="#D6D2D4" transform="translate(244,355)"/>
<path d="M0 0 C1.87365234 -0.02126953 1.87365234 -0.02126953 3.78515625 -0.04296875 C6.9375 0.1875 6.9375 0.1875 8.9375 2.1875 C6.41682687 2.35695702 3.89600616 2.52313484 1.375 2.6875 C0.67052734 2.73519531 -0.03394531 2.78289062 -0.75976562 2.83203125 C-5.20510135 3.1188271 -9.60794659 3.23432842 -14.0625 3.1875 C-9.20096641 0.67291366 -5.49289289 0.02840172 0 0 Z " fill="#BCBBBC" transform="translate(336.0625,217.8125)"/>
<path d="M0 0 C0.66 0.99 1.32 1.98 2 3 C5.60992379 2.34414811 5.60992379 2.34414811 9 1 C8.67 2.32 8.34 3.64 8 5 C3.545 5.495 3.545 5.495 -1 6 C-1 4.68 -1 3.36 -1 2 C-3.97 1.67 -6.94 1.34 -10 1 C-5.66437185 -1.16781407 -4.50491 -1.27312674 0 0 Z " fill="#C0BFBE" transform="translate(154,153)"/>
<path d="M0 0 C2.64 0 5.28 0 8 0 C5.10414095 2.29648357 2.1827969 4.04347557 -1.125 5.6875 C-2.42824219 6.34298828 -2.42824219 6.34298828 -3.7578125 7.01171875 C-6 8 -6 8 -8 8 C-7.67 6.68 -7.34 5.36 -7 4 C-4.36 3.67 -1.72 3.34 1 3 C0.67 2.01 0.34 1.02 0 0 Z " fill="#D3D2D1" transform="translate(321,241)"/>
<path d="M0 0 C-0.61538462 5.53846154 -0.61538462 5.53846154 -2.5625 7.875 C-3.2740625 8.431875 -3.2740625 8.431875 -4 9 C-4 8.01 -4 7.02 -4 6 C-4.66 6 -5.32 6 -6 6 C-6.33 4.68 -6.66 3.36 -7 2 C-4 0 -4 0 0 0 Z " fill="#D4D3D3" transform="translate(369,168)"/>
<path d="M0 0 C3.37462715 0.54723683 5.08235 1.0549 8 3 C7.01 3 6.02 3 5 3 C5.33 4.98 5.66 6.96 6 9 C5.34 9 4.68 9 4 9 C0 3.70588235 0 3.70588235 0 0 Z " fill="#D5D5D5" transform="translate(191,323)"/>
<path d="M0 0 C-2.06756277 2.7972908 -3.14440371 3.02692273 -6.6875 3.6875 C-7.780625 3.790625 -8.87375 3.89375 -10 4 C-10 4.66 -10 5.32 -10 6 C-10.99 5.67 -11.98 5.34 -13 5 C-10.57207891 1.23672231 -10.57207891 1.23672231 -8.1875 0.25 C-5.44459813 -0.0634745 -2.75800578 -0.06268195 0 0 Z " fill="#FBFAFB" transform="translate(228,365)"/>
<path d="M0 0 C2.0625 1.75 2.0625 1.75 4 4 C3.75 6.25 3.75 6.25 3 8 C-3.75 7.25 -3.75 7.25 -6 5 C-4.35 5 -2.7 5 -1 5 C-0.67 3.35 -0.34 1.7 0 0 Z " fill="#D5D2D5" transform="translate(263,246)"/>
<path d="M0 0 C0.98484375 0.00902344 1.9696875 0.01804687 2.984375 0.02734375 C4.10585937 0.04474609 4.10585937 0.04474609 5.25 0.0625 C-0.38425813 2.92799179 -4.39737839 4.57502895 -10.75 3.0625 C-9.75 1.0625 -9.75 1.0625 -8.046875 0.44140625 C-5.32835155 -0.00705765 -2.75442923 -0.03279082 0 0 Z " fill="#BEBDBE" transform="translate(245.75,320.9375)"/>
<path d="M0 0 C-2 2 -2 2 -5.625 2.125 C-6.73875 2.08375 -7.8525 2.0425 -9 2 C-9 2.66 -9 3.32 -9 4 C-10.98 4.99 -10.98 4.99 -13 6 C-13.99 5.34 -14.98 4.68 -16 4 C-14.58521865 3.35004703 -13.16808513 2.70521278 -11.75 2.0625 C-10.96109375 1.70285156 -10.1721875 1.34320313 -9.359375 0.97265625 C-3.87046632 -1.29015544 -3.87046632 -1.29015544 0 0 Z " fill="#D0CBCD" transform="translate(318,162)"/>
<path d="M0 0 C2.31 0 4.62 0 7 0 C7 1.32 7 2.64 7 4 C9.31 4 11.62 4 14 4 C14 4.99 14 5.98 14 7 C8.25 7.125 8.25 7.125 6 6 C6 4.35 6 2.7 6 1 C4.02 1 2.04 1 0 1 C0 0.67 0 0.34 0 0 Z " fill="#D3D2D1" transform="translate(164,152)"/>
<path d="M0 0 C0.33 0 0.66 0 1 0 C1 2.97 1 5.94 1 9 C2.98 8.67 4.96 8.34 7 8 C7 8.66 7 9.32 7 10 C4.36 10.33 1.72 10.66 -1 11 C-1.14285714 3.57142857 -1.14285714 3.57142857 0 0 Z " fill="#AFAFAF" transform="translate(314,213)"/>
<path d="M0 0 C0.33 0.99 0.66 1.98 1 3 C3.50447516 4.21869929 3.50447516 4.21869929 6 5 C2.91190305 6.76462683 1.76687864 7 -2 7 C-2.125 4.625 -2.125 4.625 -2 2 C-1.34 1.34 -0.68 0.68 0 0 Z " fill="#D3D1D1" transform="translate(230,295)"/>
<path d="M0 0 C0.66 0 1.32 0 2 0 C2 0.99 2 1.98 2 3 C0.02 3.66 -1.96 4.32 -4 5 C-4 5.66 -4 6.32 -4 7 C-5.65 7.66 -7.3 8.32 -9 9 C-9.66 8.34 -10.32 7.68 -11 7 C-9.730447 6.35165346 -8.45930294 5.70642185 -7.1875 5.0625 C-6.47980469 4.70285156 -5.77210938 4.34320313 -5.04296875 3.97265625 C-3 3 -3 3 0 2 C0 1.34 0 0.68 0 0 Z " fill="#CBCBCB" transform="translate(341,259)"/>
<path d="M0 0 C0.66 0.33 1.32 0.66 2 1 C2 3.64 2 6.28 2 9 C1.01 9 0.02 9 -1 9 C-1.625 6.1875 -1.625 6.1875 -2 3 C-1.34 2.01 -0.68 1.02 0 0 Z " fill="#E3DDDC" transform="translate(369,129)"/>
<path d="M0 0 C0.66 0.99 1.32 1.98 2 3 C0.71186658 3.83878455 -0.58063256 4.67086783 -1.875 5.5 C-2.59429687 5.9640625 -3.31359375 6.428125 -4.0546875 6.90625 C-6 8 -6 8 -8 8 C-6.88333826 4.65001479 -6.25305075 4.20659778 -3.4375 2.3125 C-2.79683594 1.87550781 -2.15617188 1.43851563 -1.49609375 0.98828125 C-1.00238281 0.66214844 -0.50867188 0.33601562 0 0 Z " fill="#CEC9CA" transform="translate(242,169)"/>
<path d="M0 0 C0.66 0.33 1.32 0.66 2 1 C0.32482761 4.53647504 -0.49280817 5.7911563 -4.1875 7.3125 C-5.5796875 7.6528125 -5.5796875 7.6528125 -7 8 C-7.33 7.34 -7.66 6.68 -8 6 C-7.05125 5.7525 -6.1025 5.505 -5.125 5.25 C-1.91306809 4.3142923 -1.91306809 4.3142923 -0.625 1.875 C-0.41875 1.25625 -0.2125 0.6375 0 0 Z " fill="#DCDAD9" transform="translate(249,367)"/>
<path d="M0 0 C5.12583611 -0.10251672 9.94997778 -0.03590199 15 1 C14.67 2.32 14.34 3.64 14 5 C14 4.01 14 3.02 14 2 C11.36 2.33 8.72 2.66 6 3 C6 2.34 6 1.68 6 1 C4.02 1 2.04 1 0 1 C0 0.67 0 0.34 0 0 Z " fill="#BFB8B9" transform="translate(244,273)"/>
<path d="M0 0 C1.65 0.33 3.3 0.66 5 1 C5 1.66 5 2.32 5 3 C-0.28 3 -5.56 3 -11 3 C-11 2.67 -11 2.34 -11 2 C-7.37 2 -3.74 2 0 2 C0 1.34 0 0.68 0 0 Z " fill="#E8E7E7" transform="translate(253,256)"/>
<path d="M0 0 C-1.6210103 0.69685498 -3.24696066 1.38222861 -4.875 2.0625 C-5.77992188 2.44535156 -6.68484375 2.82820312 -7.6171875 3.22265625 C-10 4 -10 4 -12 3 C-8.29496167 -1.29004438 -5.03500815 -2.85424029 0 0 Z " fill="#C1C1C1" transform="translate(310,251)"/>
<path d="M0 0 C1.32 0.33 2.64 0.66 4 1 C3.67 2.32 3.34 3.64 3 5 C1.68 5.33 0.36 5.66 -1 6 C-1.33 4.68 -1.66 3.36 -2 2 C-1.34 2 -0.68 2 0 2 C0 1.34 0 0.68 0 0 Z " fill="#D8D8D5" transform="translate(238,176)"/>
<path d="M0 0 C0.99 0 1.98 0 3 0 C2.6875 2.875 2.6875 2.875 2 6 C1.01 6.66 0.02 7.32 -1 8 C-0.67 6.68 -0.34 5.36 0 4 C-0.66 4 -1.32 4 -2 4 C-1.34 2.68 -0.68 1.36 0 0 Z " fill="#E3E1E2" transform="translate(348,151)"/>
<path d="M0 0 C0.33 1.65 0.66 3.3 1 5 C0.67 4.01 0.34 3.02 0 2 C-3.3 2.66 -6.6 3.32 -10 4 C-10 3.34 -10 2.68 -10 2 C-6.5980513 -0.09350689 -3.94727588 -0.17942163 0 0 Z " fill="#C8C6C7" transform="translate(298,150)"/>
<path d="M0 0 C-2.33214148 1.20628008 -4.49642139 2.1654738 -7 3 C-8.66710346 4.49985609 -8.66710346 4.49985609 -10 6 C-9.67 4.02 -9.34 2.04 -9 0 C-5.52176885 -1.15941038 -3.54104422 -0.70820884 0 0 Z " fill="#D1D0D0" transform="translate(304,297)"/>
<path d="M0 0 C1.32 0.66 2.64 1.32 4 2 C0.91190305 3.76462683 -0.23312136 4 -4 4 C-4.33 4.99 -4.66 5.98 -5 7 C-5.33 6.01 -5.66 5.02 -6 4 C-4.02 2.68 -2.04 1.36 0 0 Z " fill="#E4DEDA" transform="translate(361,125)"/>
<path d="M0 0 C0.66 0 1.32 0 2 0 C1.33333333 1.33333333 0.66666667 2.66666667 0 4 C-0.28875 4.70125 -0.5775 5.4025 -0.875 6.125 C-2.25218936 8.42031559 -3.55198504 9.02079402 -6 10 C-4.63312778 6.01328937 -2.84804907 3.11505367 0 0 Z " fill="#CBC7C9" transform="translate(257,356)"/>
<path d="M0 0 C-2.26562673 2.26562673 -3.84160705 2.94462749 -7.04296875 3.09765625 C-7.75066406 3.08605469 -8.45835937 3.07445312 -9.1875 3.0625 C-11.0746875 3.0315625 -11.0746875 3.0315625 -13 3 C-8.24109471 0.62054735 -5.45161235 -0.10095578 0 0 Z " fill="#C6C4C6" transform="translate(143,154)"/>
<path d="M0 0 C0.33 0.66 0.66 1.32 1 2 C-1.66666667 4.66666667 -4.33333333 7.33333333 -7 10 C-7.33 9.34 -7.66 8.68 -8 8 C-7.04578192 6.85073734 -6.08647955 5.70569459 -5.125 4.5625 C-4.59132812 3.92441406 -4.05765625 3.28632813 -3.5078125 2.62890625 C-2 1 -2 1 0 0 Z " fill="#B5B5B5" transform="translate(256,151)"/>
<path d="M0 0 C1.65 0.33 3.3 0.66 5 1 C2.06171403 3.50298434 -0.17902761 4.46930939 -4 5 C-3.34 4.01 -2.68 3.02 -2 2 C-1.34 2 -0.68 2 0 2 C0 1.34 0 0.68 0 0 Z " fill="#BAB2B3" transform="translate(276,371)"/>
<path d="M0 0 C1.1875 2.5625 1.1875 2.5625 2 5 C1.01 4.67 0.02 4.34 -1 4 C-1.33 3.34 -1.66 2.68 -2 2 C-3.65 2.33 -5.3 2.66 -7 3 C-6.67 2.01 -6.34 1.02 -6 0 C-3 -1 -3 -1 0 0 Z " fill="#CCC9CB" transform="translate(210,179)"/>
<path d="M0 0 C1.36125 0.37125 1.36125 0.37125 2.75 0.75 C2.75 1.41 2.75 2.07 2.75 2.75 C0.44 2.75 -1.87 2.75 -4.25 2.75 C-4.58 3.41 -4.91 4.07 -5.25 4.75 C-5.91 4.42 -6.57 4.09 -7.25 3.75 C-4.05 -0.31153846 -4.05 -0.31153846 0 0 Z " fill="#C6C5C5" transform="translate(351.25,164.25)"/>
<path d="M0 0 C1.69752187 0.25245197 3.38471545 0.57645775 5.0625 0.9375 C5.98160156 1.13214844 6.90070313 1.32679688 7.84765625 1.52734375 C8.91306641 1.76130859 8.91306641 1.76130859 10 2 C10 2.33 10 2.66 10 3 C9.37351563 3.04898438 8.74703125 3.09796875 8.1015625 3.1484375 C7.28429687 3.22320312 6.46703125 3.29796875 5.625 3.375 C4.81289062 3.44460937 4.00078125 3.51421875 3.1640625 3.5859375 C0.79665809 3.82892588 0.79665809 3.82892588 -1 6 C-1.042721 4.33388095 -1.04063832 2.66617115 -1 1 C-0.67 0.67 -0.34 0.34 0 0 Z " fill="#B2B0AE" transform="translate(167,161)"/>
<path d="M0 0 C2.475 0.495 2.475 0.495 5 1 C5 1.99 5 2.98 5 4 C4.34 4.66 3.68 5.32 3 6 C0 2.25 0 2.25 0 0 Z " fill="#BBB5B2" transform="translate(364,126)"/>
<path d="M0 0 C-0.33 1.32 -0.66 2.64 -1 4 C-1 3.34 -1 2.68 -1 2 C-2.98 2 -4.96 2 -7 2 C-7 1.34 -7 0.68 -7 0 C-4.3333581 -1.33332095 -2.83319697 -0.67102033 0 0 Z " fill="#D1D0D0" transform="translate(199,162)"/>
<path d="M0 0 C0.33 0.66 0.66 1.32 1 2 C-1.31 1.67 -3.62 1.34 -6 1 C-6 1.66 -6 2.32 -6 3 C-6.66 3 -7.32 3 -8 3 C-8 2.01 -8 1.02 -8 0 C-4.97878489 -0.97110486 -2.99536737 -1.13617383 0 0 Z " fill="#A89D99" transform="translate(365,129)"/>
<path d="M0 0 C0.99 0 1.98 0 3 0 C2.125 3.875 2.125 3.875 1 5 C-1.0625 4.5625 -1.0625 4.5625 -3 4 C-3 3.34 -3 2.68 -3 2 C-2.01 2 -1.02 2 0 2 C0 1.34 0 0.68 0 0 Z " fill="#C9C1BF" transform="translate(271,367)"/>
<path d="M0 0 C2.97 0 5.94 0 9 0 C5.81237635 2.12508244 3.73487777 2.5020163 0 3 C0 2.01 0 1.02 0 0 Z " fill="#A4A3A3" transform="translate(192,168)"/>
<path d="M0 0 C0.99 0.33 1.98 0.66 3 1 C2.67 1.66 2.34 2.32 2 3 C-0.64860427 3.59355614 -3.29197322 3.74209269 -6 4 C-4.03617993 2.49440461 -2.21736634 1.10868317 0 0 Z " fill="#C2C1C1" transform="translate(187,163)"/>
</svg>
